<?xml version="1.0" encoding="utf-8"?>
<!-- Generator: Adobe Illustrator 24.0.0, SVG Export Plug-In . SVG Version: 6.00 Build 0)  -->
<svg version="1.1" xmlns="http://www.w3.org/2000/svg" xmlns:xlink="http://www.w3.org/1999/xlink" x="0px" y="0px"
	 width="206.661px" height="250px" viewBox="0 0 206.661 250" enable-background="new 0 0 206.661 250" xml:space="preserve">
<g id="HomePage">
</g>
<g id="Catalog">
</g>
<g id="Menu">
</g>
<g id="Notes">
</g>
<g id="EventCalendar">
	<g>
		<g>
			<g>
				<path fill="#2C1419" stroke="#FFFFFF" stroke-width="1.4203" stroke-miterlimit="10" d="M58.741,74.558L58.741,74.558
					c-2.133-1.085-3.476-3.276-3.476-5.669V10.597H54.65c-1.468,1.287-5.439,2.212-10.122,2.212c-4.682,0-8.654-0.925-10.121-2.212
					h-0.66v58.187c0,2.448-1.405,4.679-3.612,5.736l-0.449,0.215c-10.167,4.873-16.564,15.223-16.374,26.496l1.819,108.009
					c0,2.783,12.88,5.039,28.769,5.039s28.769-2.256,28.769-5.039l1.827-108.49C74.684,89.725,68.568,79.559,58.741,74.558z"/>
				<path fill="#772646" d="M14.796,109.813l0.573,34.019c5.725,1.564,16.932,2.565,28.851,2.565c11.565,0,22.28-0.915,28.213-2.4
					l0.574-34.057c-6.172,1.175-16.808,1.87-28.787,1.87C31.91,111.811,20.802,111.051,14.796,109.813z"/>
				
					<ellipse fill="#2C1419" stroke="#FFFFFF" stroke-width="1.4203" stroke-miterlimit="10" cx="44.529" cy="9.503" rx="10.736" ry="3.306"/>
				<path fill="#772646" stroke="#FFFFFF" stroke-width="1.4203" stroke-miterlimit="10" d="M33.748,23.358v33.861
					c2.101,1.017,6.139,1.706,10.781,1.706c4.611,0,8.623-0.68,10.736-1.686V23.378c-2.113,1.006-6.125,1.686-10.736,1.686
					C39.887,25.064,35.849,24.375,33.748,23.358z"/>
			</g>
			<path opacity="0.5" fill="#FFFFFF" d="M33.748,76.93c-12.071,5.44-16.785,14.279-16.785,28.558
				c10.063-17.951,16.571-19.602,35.176-27.742C44.886,79.74,41.26,80.103,33.748,76.93z"/>
		</g>
		<g>
			<path fill="#2C1419" stroke="#FFFFFF" stroke-width="0.8899" stroke-miterlimit="10" d="M191.778,155.448H33.152
				c-0.869,0-1.574,0.705-1.574,1.574v85.918c0,0.869,0.705,1.574,1.574,1.574H100c0.923,0.927,6.152,1.638,12.466,1.638
				c6.313,0,11.542-0.71,12.465-1.638h66.847c0.869,0,1.574-0.705,1.574-1.574v-85.918
				C193.352,156.153,192.647,155.448,191.778,155.448z"/>
			<path fill="#2C1419" stroke="#FFFFFF" stroke-width="0.445" stroke-miterlimit="10" d="M33.152,242.29H100
				c3.22,1.395,6.152,1.638,12.466,1.638"/>
			<path fill="#FFFFFF" stroke="#2C1419" stroke-width="0.8899" stroke-miterlimit="10" d="M37.405,237.698h147.914v-93.512
				c-37.035,0-72.854,11.262-72.854,11.262s-35.753-11.262-75.06-11.262V237.698z"/>
			<path fill="#FFFFFF" stroke="#2C1419" stroke-width="0.8899" stroke-miterlimit="10" d="M51.719,233.381
				c48.396,0,60.746,5.339,60.746,5.339s17.187-5.339,58.539-5.339v-98.836c-29.867,0-58.753,20.569-58.753,20.569
				s-28.833-20.569-60.532-20.569V233.381z"/>
			
				<line fill="none" stroke="#2C1419" stroke-width="0.8899" stroke-miterlimit="10" x1="112.465" y1="153.631" x2="112.465" y2="238.721"/>
			
				<text transform="matrix(1 0 0 1 57.2491 211.1207)" fill="#772646" font-family="'BerkshireSwash-Regular'" font-size="57.8076px">B</text>
			
				<text transform="matrix(1 0 0 1 126.7754 211.1207)" fill="#772646" font-family="'BerkshireSwash-Regular'" font-size="57.8076px">b</text>
			<path fill="none" stroke="#2C1419" stroke-width="0.445" stroke-miterlimit="10" d="M51.719,149.617
				c6.21,0,23.781,1.818,32.415,4.696"/>
			<path fill="none" stroke="#2C1419" stroke-width="0.445" stroke-miterlimit="10" d="M144.118,227.02
				c0,0,14.239-1.666,26.887-1.666"/>
			
				<line fill="none" stroke="#2C1419" stroke-width="0.445" stroke-miterlimit="10" x1="171.004" y1="161.198" x2="185.319" y2="161.198"/>
			
				<line fill="none" stroke="#2C1419" stroke-width="0.445" stroke-miterlimit="10" x1="51.719" y1="229.244" x2="37.405" y2="229.244"/>
			
				<line fill="#2C1419" stroke="#FFFFFF" stroke-width="0.445" stroke-miterlimit="10" x1="191.226" y1="159.311" x2="190.999" y2="239.743"/>
		</g>
	</g>
</g>
<g id="Colors">
</g>
</svg>
