<?xml version="1.0" encoding="utf-8"?>
<!-- Generator: Adobe Illustrator 24.0.0, SVG Export Plug-In . SVG Version: 6.00 Build 0)  -->
<svg version="1.1" xmlns="http://www.w3.org/2000/svg" xmlns:xlink="http://www.w3.org/1999/xlink" x="0px" y="0px"
	 width="770.553px" height="780.979px" viewBox="0 0 770.553 780.979" enable-background="new 0 0 770.553 780.979"
	 xml:space="preserve">
<g id="HomePage">
</g>
<g id="Catalog">
</g>
<g id="Menu">
</g>
<g id="Notes">
</g>
<g id="EventCalendar">
	<rect x="0" fill="#FFFFFF" width="770.553" height="780.979"/>
	<path fill="#FFFFFF" stroke="#2C1419" stroke-width="11" stroke-miterlimit="10" d="M628.851,634.213H141.702
		c-29.612,0-53.617-24.005-53.617-53.617V174.638c0-29.612,24.005-53.617,53.617-53.617h487.149
		c29.612,0,53.617,24.005,53.617,53.617v405.957C682.468,610.208,658.463,634.213,628.851,634.213z"/>
	<g>
		<path fill="#EDE6E8" stroke="#2C1419" stroke-width="11" stroke-miterlimit="10" d="M199.706,194.553h-19.915
			c-11.114,0-20.124-9.01-20.124-20.124V72.209c0-11.114,9.01-20.124,20.124-20.124h19.915c11.114,0,20.124,9.01,20.124,20.124
			v102.22C219.83,185.543,210.82,194.553,199.706,194.553z"/>
		<path fill="#EDE6E8" stroke="#2C1419" stroke-width="11" stroke-miterlimit="10" d="M590.763,194.553h-19.915
			c-11.114,0-20.124-9.01-20.124-20.124V72.209c0-11.114,9.01-20.124,20.124-20.124h19.915c11.114,0,20.124,9.01,20.124,20.124
			v102.22C610.887,185.543,601.877,194.553,590.763,194.553z"/>
	</g>
	<path fill="#2C1419" d="M628.851,121.021h-17.964v53.408c0,11.114-9.01,20.124-20.125,20.124h-19.915
		c-11.114,0-20.124-9.01-20.124-20.124v-53.408H219.83v53.408c0,11.114-9.01,20.124-20.125,20.124h-19.915
		c-11.114,0-20.125-9.01-20.125-20.124v-53.408h-17.964c-29.612,0-53.617,24.005-53.617,53.617v116.426h594.383V174.638
		C682.468,145.026,658.463,121.021,628.851,121.021z"/>
	<text transform="matrix(1 0 0 1 222.284 258.8555)" fill="#FFFFFF" font-family="'BerkshireSwash-Regular'" font-size="85.1005px">R</text>
	
		<text transform="matrix(0.7 0 0 0.7 289.5164 258.8555)" fill="#FFFFFF" font-family="'BerkshireSwash-Regular'" font-size="85.1005px">eserve</text>
	<g>
		<path fill="#772646" stroke="#2C1419" stroke-miterlimit="10" d="M212.17,398.298h-62.043c-4.23,0-7.66-3.429-7.66-7.66v-44.426
			c0-4.23,3.429-7.66,7.66-7.66h62.043c4.23,0,7.66,3.429,7.66,7.66v44.426C219.83,394.869,216.4,398.298,212.17,398.298z"/>
		<path fill="#772646" stroke="#2C1419" stroke-miterlimit="10" d="M345.447,398.298h-62.043c-4.23,0-7.66-3.429-7.66-7.66v-44.426
			c0-4.23,3.429-7.66,7.66-7.66h62.043c4.23,0,7.66,3.429,7.66,7.66v44.426C353.106,394.869,349.677,398.298,345.447,398.298z"/>
		<path fill="#772646" stroke="#2C1419" stroke-miterlimit="10" d="M478.723,398.298h-62.043c-4.23,0-7.66-3.429-7.66-7.66v-44.426
			c0-4.23,3.429-7.66,7.66-7.66h62.043c4.23,0,7.66,3.429,7.66,7.66v44.426C486.383,394.869,482.954,398.298,478.723,398.298z"/>
		<path fill="#772646" stroke="#2C1419" stroke-miterlimit="10" d="M612,398.298h-62.043c-4.23,0-7.66-3.429-7.66-7.66v-44.426
			c0-4.23,3.429-7.66,7.66-7.66H612c4.23,0,7.66,3.429,7.66,7.66v44.426C619.66,394.869,616.23,398.298,612,398.298z"/>
	</g>
	<g>
		<path fill="#772646" stroke="#2C1419" stroke-miterlimit="10" d="M212.17,497.872h-62.043c-4.23,0-7.66-3.429-7.66-7.66v-44.426
			c0-4.23,3.429-7.66,7.66-7.66h62.043c4.23,0,7.66,3.429,7.66,7.66v44.426C219.83,494.443,216.4,497.872,212.17,497.872z"/>
		<path fill="#772646" stroke="#2C1419" stroke-miterlimit="10" d="M345.447,497.872h-62.043c-4.23,0-7.66-3.429-7.66-7.66v-44.426
			c0-4.23,3.429-7.66,7.66-7.66h62.043c4.23,0,7.66,3.429,7.66,7.66v44.426C353.106,494.443,349.677,497.872,345.447,497.872z"/>
		<path fill="#772646" stroke="#2C1419" stroke-miterlimit="10" d="M478.723,497.872h-62.043c-4.23,0-7.66-3.429-7.66-7.66v-44.426
			c0-4.23,3.429-7.66,7.66-7.66h62.043c4.23,0,7.66,3.429,7.66,7.66v44.426C486.383,494.443,482.954,497.872,478.723,497.872z"/>
		<path fill="#772646" stroke="#2C1419" stroke-miterlimit="10" d="M612,497.872h-62.043c-4.23,0-7.66-3.429-7.66-7.66v-44.426
			c0-4.23,3.429-7.66,7.66-7.66H612c4.23,0,7.66,3.429,7.66,7.66v44.426C619.66,494.443,616.23,497.872,612,497.872z"/>
	</g>
	<g>
		<path fill="#772646" stroke="#2C1419" stroke-miterlimit="10" d="M212.17,597.447h-62.043c-4.23,0-7.66-3.429-7.66-7.66v-44.426
			c0-4.23,3.429-7.66,7.66-7.66h62.043c4.23,0,7.66,3.429,7.66,7.66v44.426C219.83,594.018,216.4,597.447,212.17,597.447z"/>
		<path fill="#772646" stroke="#2C1419" stroke-miterlimit="10" d="M345.447,597.447h-62.043c-4.23,0-7.66-3.429-7.66-7.66v-44.426
			c0-4.23,3.429-7.66,7.66-7.66h62.043c4.23,0,7.66,3.429,7.66,7.66v44.426C353.106,594.018,349.677,597.447,345.447,597.447z"/>
	</g>
	<g>
		
			<line fill="none" stroke="#DF1D3D" stroke-width="15" stroke-linecap="round" stroke-miterlimit="10" x1="418.213" y1="532.34" x2="484.851" y2="598.979"/>
		
			<line fill="none" stroke="#DF1D3D" stroke-width="15" stroke-linecap="round" stroke-miterlimit="10" x1="484.851" y1="532.34" x2="418.213" y2="598.979"/>
	</g>
	<g>
		
			<line fill="none" stroke="#DF1D3D" stroke-width="15" stroke-linecap="round" stroke-miterlimit="10" x1="547.486" y1="532.34" x2="614.124" y2="598.979"/>
		
			<line fill="none" stroke="#DF1D3D" stroke-width="15" stroke-linecap="round" stroke-miterlimit="10" x1="614.124" y1="532.34" x2="547.486" y2="598.979"/>
	</g>
</g>
<g id="Colors">
</g>
</svg>
