<?xml version="1.0" encoding="utf-8"?>
<!-- Generator: Adobe Illustrator 24.0.0, SVG Export Plug-In . SVG Version: 6.00 Build 0)  -->
<svg version="1.1" xmlns="http://www.w3.org/2000/svg" xmlns:xlink="http://www.w3.org/1999/xlink" x="0px" y="0px"
	 width="770.553px" height="780.979px" viewBox="0 0 770.553 780.979" enable-background="new 0 0 770.553 780.979"
	 xml:space="preserve">
<g id="HomePage">
</g>
<g id="Catalog">
</g>
<g id="Menu">
	<g>
		<radialGradient id="SVGID_2_" cx="385.2766" cy="390.4893" r="369.9575" gradientUnits="userSpaceOnUse">
			<stop  offset="0.0855" style="stop-color:#E9CD61"/>
			<stop  offset="0.7061" style="stop-color:#E9B932"/>
			<stop  offset="0.8473" style="stop-color:#E6B631"/>
			<stop  offset="0.8997" style="stop-color:#DCAF31"/>
			<stop  offset="0.9373" style="stop-color:#CEA331"/>
			<stop  offset="0.9679" style="stop-color:#BC9530"/>
			<stop  offset="0.9938" style="stop-color:#A6842F"/>
			<stop  offset="1" style="stop-color:#A07F2F"/>
		</radialGradient>
		<circle fill="url(#SVGID_2_)" cx="385.277" cy="390.489" r="369.957"/>
		<path d="M757.212,390.489c-0.006,24.344-2.348,48.692-7.058,72.582c-4.705,23.89-11.775,47.316-21.08,69.822
			c-18.586,45.026-46.165,86.316-80.614,120.78c-34.443,34.466-75.688,62.119-120.712,80.776
			c-22.503,9.338-45.932,16.46-69.84,21.162c-23.905,4.72-48.27,7.07-72.63,7.082c-24.361-0.048-48.719-2.433-72.61-7.187
			c-23.891-4.748-47.31-11.86-69.8-21.204c-44.999-18.664-86.214-46.318-120.627-80.776
			c-34.408-34.463-61.992-75.709-80.579-120.709c-9.306-22.491-16.378-45.904-21.088-69.78c-4.716-23.877-7.065-48.214-7.079-72.548
			c0.046-24.334,2.428-48.665,7.175-72.529c4.741-23.864,11.844-47.257,21.176-69.723c18.64-44.95,46.261-86.122,80.68-120.5
			c34.424-34.373,75.624-61.93,120.575-80.499c22.467-9.3,45.855-16.352,69.7-21.096c23.848-4.738,48.161-7.112,72.477-7.153
			c24.316,0.02,48.633,2.372,72.489,7.09c23.856,4.712,47.247,11.786,69.716,21.09c44.958,18.583,86.146,46.162,120.593,80.521
			c34.435,34.374,62.075,75.547,80.734,120.504c9.341,22.47,16.454,45.868,21.204,69.74
			C754.768,341.806,757.158,366.146,757.212,390.489z M753.257,390.489c0.029-48.18-9.39-96.361-27.84-140.887
			c-18.387-44.546-45.682-85.385-79.739-119.514c-34.055-34.133-74.88-61.489-119.425-79.952
			c-44.528-18.526-92.739-28.023-140.975-28.062c-24.118,0.02-48.234,2.353-71.891,7.032c-23.661,4.661-46.844,11.716-69.112,20.963
			c-44.553,18.476-85.365,45.855-119.443,79.974c-34.073,34.124-61.388,74.964-79.793,119.518
			c-18.47,44.534-27.906,92.729-27.892,140.929c0.051,48.2,9.551,96.37,28.075,140.853c18.458,44.504,45.811,85.27,79.895,119.309
			c34.089,34.034,74.886,61.316,119.391,79.697c44.484,18.446,92.625,27.869,140.771,27.851c48.15-0.049,96.245-9.57,140.71-27.998
			c44.479-18.388,85.247-45.671,119.306-79.697c34.043-34.039,61.4-74.761,79.859-119.238
			C743.676,486.812,753.19,438.67,753.257,390.489z"/>
	</g>
	<radialGradient id="SVGID_4_" cx="304.8511" cy="243.5745" r="499.0023" gradientUnits="userSpaceOnUse">
		<stop  offset="0.0855" style="stop-color:#FFFFFF"/>
		<stop  offset="0.3844" style="stop-color:#E9B932"/>
		<stop  offset="0.6114" style="stop-color:#E9B934"/>
		<stop  offset="0.6957" style="stop-color:#EABB3A"/>
		<stop  offset="0.7562" style="stop-color:#EBBE45"/>
		<stop  offset="0.8054" style="stop-color:#ECC256"/>
		<stop  offset="0.8477" style="stop-color:#EEC86A"/>
		<stop  offset="0.8852" style="stop-color:#F0CF80"/>
		<stop  offset="0.9192" style="stop-color:#F3D899"/>
		<stop  offset="0.9505" style="stop-color:#F6E3B7"/>
		<stop  offset="0.9784" style="stop-color:#FAEFDA"/>
		<stop  offset="1" style="stop-color:#FFFFFF"/>
	</radialGradient>
	<circle opacity="0.35" fill="url(#SVGID_4_)" cx="385.277" cy="390.489" r="312.34"/>
	<g>
		<g>
			<g>
				<radialGradient id="SVGID_6_" cx="477.2608" cy="262.7129" r="200.1967" gradientUnits="userSpaceOnUse">
					<stop  offset="6.926126e-08" style="stop-color:#2364B0"/>
					<stop  offset="0.1028" style="stop-color:#2764B0"/>
					<stop  offset="0.5128" style="stop-color:#2863AE"/>
					<stop  offset="0.665" style="stop-color:#2A5FA8"/>
					<stop  offset="0.7743" style="stop-color:#2C58A0"/>
					<stop  offset="0.8631" style="stop-color:#2E4E96"/>
					<stop  offset="0.9385" style="stop-color:#30428A"/>
					<stop  offset="1" style="stop-color:#31337F"/>
				</radialGradient>
				<path fill="url(#SVGID_6_)" d="M548.949,299.443c15.463,75.599-2.172,143.056-39.39,150.669
					c-37.218,7.613-79.925-47.501-95.388-123.1s2.172-143.056,39.39-150.669C490.779,168.729,533.486,223.843,548.949,299.443z"/>
				<path d="M551.416,298.938c1.433,6.937,2.664,13.919,3.632,20.943c0.924,7.03,1.611,14.095,2.022,21.184
					c0.729,14.176,0.435,28.464-1.599,42.613c-2.031,14.117-5.661,28.206-12.359,41.171c-3.407,6.426-7.618,12.587-13.108,17.688
					c-2.73,2.561-5.829,4.759-9.127,6.632c-3.366,1.776-6.979,3.086-10.714,3.9c-3.76,0.687-7.594,0.87-11.376,0.529
					c-3.757-0.457-7.45-1.289-10.944-2.596c-7.002-2.592-13.236-6.627-18.861-11.196c-11.186-9.296-19.927-20.872-27.313-33.022
					c-7.37-12.201-13.241-25.193-18.124-38.49c-2.397-6.668-4.536-13.421-6.445-20.236c-1.865-6.827-3.473-13.718-4.878-20.648
					c-1.335-6.944-2.467-13.925-3.338-20.941c-0.825-7.022-1.414-14.07-1.727-21.133c-0.555-14.122-0.127-28.322,2-42.337
					c1.064-7.002,2.527-13.955,4.53-20.769c2.011-6.806,4.536-13.495,7.866-19.814c1.719-3.129,3.513-6.231,5.667-9.106
					c2.055-2.939,4.47-5.635,7.069-8.138c2.625-2.49,5.594-4.615,8.748-6.432c3.219-1.718,6.668-2.989,10.239-3.791
					c3.597-0.674,7.27-0.871,10.909-0.565c3.618,0.423,7.19,1.203,10.589,2.454c6.821,2.452,12.984,6.333,18.573,10.78
					c5.57,4.497,10.542,9.652,15.09,15.117c4.54,5.478,8.655,11.286,12.413,17.304c7.519,12.046,13.573,24.929,18.649,38.149
					c2.495,6.629,4.732,13.353,6.739,20.146C548.2,285.14,549.909,292.016,551.416,298.938z M546.482,299.947
					c-1.377-6.824-2.954-13.608-4.782-20.328c-1.872-6.706-3.969-13.349-6.321-19.902c-4.789-13.065-10.545-25.812-17.728-37.719
					c-7.185-11.86-15.713-23.065-26.31-31.926c-5.326-4.346-11.168-8.13-17.561-10.503c-3.195-1.187-6.521-1.915-9.873-2.323
					c-3.367-0.29-6.747-0.116-10.062,0.49c-3.288,0.734-6.47,1.893-9.46,3.474c-2.93,1.684-5.712,3.653-8.195,5.995
					c-4.994,4.658-8.934,10.42-12.139,16.518c-3.181,6.133-5.6,12.666-7.522,19.333c-1.914,6.675-3.306,13.505-4.305,20.393
					c-1.009,6.889-1.579,13.844-1.833,20.809c-0.243,6.966-0.212,13.946,0.168,20.912c0.404,6.964,1.079,13.911,1.987,20.827
					c0.953,6.911,2.163,13.783,3.573,20.614c1.479,6.816,3.156,13.586,5.083,20.283c1.97,6.684,4.165,13.298,6.616,19.812
					c4.982,12.988,10.92,25.628,18.252,37.379c3.665,5.869,7.661,11.521,12.057,16.81c4.403,5.274,9.163,10.245,14.443,14.516
					c5.29,4.224,11.061,7.854,17.272,10.087c3.101,1.131,6.305,1.806,9.518,2.181c3.224,0.255,6.443,0.068,9.594-0.525
					c3.125-0.722,6.143-1.841,8.986-3.364c2.786-1.628,5.439-3.525,7.816-5.796c2.353-2.288,4.569-4.761,6.474-7.51
					c1.995-2.673,3.674-5.605,5.291-8.564c3.135-5.993,5.542-12.417,7.462-18.99c1.896-6.586,3.365-13.325,4.403-20.148
					C553.425,355.427,551.829,327.236,546.482,299.947z"/>
			</g>
			<radialGradient id="SVGID_7_" cx="513.8651" cy="429.6215" r="207.7242" gradientUnits="userSpaceOnUse">
				<stop  offset="0.0855" style="stop-color:#333232"/>
				<stop  offset="1" style="stop-color:#FFFFFF"/>
			</radialGradient>
			<path opacity="0.25" fill="url(#SVGID_7_)" d="M434.089,340.446c-14.303-69.922,0.65-132.035,33.397-138.733
				c13.623-2.787,28.177,4.483,41.562,18.929c-16.273-24.207-35.619-37.654-53.385-34.02c-32.747,6.698-47.7,68.811-33.397,138.733
				c8.352,40.832,24.838,75.272,43.627,95.549C452.17,400.491,440.631,372.434,434.089,340.446z"/>
		</g>
		<circle opacity="0.15" fill="#FFFFFF" cx="483.994" cy="379.416" r="21.049"/>
	</g>
	<g>
		<g>
			<g>
				
					<radialGradient id="SVGID_8_" cx="-408.186" cy="262.7129" r="200.1967" gradientTransform="matrix(-1 0 0 1 -128.6808 0)" gradientUnits="userSpaceOnUse">
					<stop  offset="6.926126e-08" style="stop-color:#2364B0"/>
					<stop  offset="0.1028" style="stop-color:#2764B0"/>
					<stop  offset="0.5128" style="stop-color:#2863AE"/>
					<stop  offset="0.665" style="stop-color:#2A5FA8"/>
					<stop  offset="0.7743" style="stop-color:#2C58A0"/>
					<stop  offset="0.8631" style="stop-color:#2E4E96"/>
					<stop  offset="0.9385" style="stop-color:#30428A"/>
					<stop  offset="1" style="stop-color:#31337F"/>
				</radialGradient>
				<path fill="url(#SVGID_8_)" d="M207.817,299.443c-15.463,75.599,2.172,143.056,39.39,150.669s79.925-47.501,95.388-123.1
					s-2.172-143.056-39.39-150.669C265.987,168.729,223.28,223.843,207.817,299.443z"/>
				<path d="M209.781,299.844c-1.309,6.851-2.418,13.736-3.268,20.652c-0.805,6.921-1.376,13.864-1.678,20.816
					c-0.509,13.898-0.001,27.851,2.136,41.529c1.068,6.834,2.534,13.594,4.49,20.182c1.968,6.578,4.424,13.003,7.607,18.989
					c3.211,5.949,7.111,11.52,11.924,16.001c2.392,2.258,5.058,4.137,7.851,5.747c2.85,1.504,5.869,2.601,8.989,3.301
					c3.146,0.571,6.353,0.737,9.56,0.463c3.197-0.393,6.38-1.084,9.459-2.229c3.065-1.167,6.073-2.571,8.917-4.329
					c2.893-1.662,5.595-3.693,8.253-5.771c5.253-4.265,10.01-9.215,14.379-14.497c4.365-5.292,8.33-10.947,11.964-16.817
					c7.279-11.749,13.13-24.395,18.09-37.358c2.443-6.502,4.634-13.101,6.602-19.772c1.924-6.684,3.6-13.441,5.077-20.244
					c1.408-6.818,2.618-13.677,3.571-20.575c0.906-6.903,1.583-13.835,1.991-20.786c0.722-13.895,0.429-27.877-1.505-41.645
					c-1.954-13.724-5.387-27.383-11.689-39.666c-3.199-6.078-7.099-11.832-12.039-16.509c-2.46-2.349-5.22-4.328-8.132-6.025
					c-2.972-1.594-6.139-2.769-9.419-3.523c-3.306-0.625-6.684-0.82-10.054-0.55c-3.356,0.388-6.691,1.096-9.899,2.266
					c-6.434,2.302-12.326,6.055-17.691,10.386c-10.689,8.815-19.318,20.002-26.533,31.885c-7.241,11.913-13.005,24.692-17.811,37.78
					c-2.36,6.565-4.465,13.219-6.343,19.937C212.745,286.213,211.163,293.009,209.781,299.844z M205.853,299.041
					c5.899-27.629,15.628-54.607,30.445-78.768c3.729-6.017,7.835-11.805,12.327-17.296c4.5-5.478,9.427-10.648,14.953-15.166
					c2.8-2.208,5.658-4.367,8.762-6.17c3.044-1.891,6.312-3.439,9.681-4.728c3.387-1.268,6.949-2.067,10.563-2.511
					c3.635-0.327,7.31-0.151,10.916,0.504c3.579,0.783,7.043,2.036,10.281,3.741c3.172,1.804,6.164,3.92,8.811,6.403
					c5.318,4.949,9.45,10.959,12.835,17.253c3.35,6.333,5.876,13.037,7.914,19.85c2.034,6.82,3.528,13.781,4.622,20.793
					c2.181,14.034,2.686,28.261,2.159,42.414c-0.31,7.077-0.896,14.14-1.722,21.174c-0.871,7.029-2.004,14.024-3.341,20.98
					c-5.52,27.755-14.858,54.996-29.628,79.473c-3.717,6.095-7.791,11.996-12.324,17.57c-4.54,5.565-9.521,10.833-15.145,15.464
					c-5.643,4.582-11.911,8.631-18.964,11.183c-3.516,1.293-7.229,2.109-11.003,2.547c-3.798,0.322-7.645,0.118-11.41-0.591
					c-3.739-0.836-7.352-2.168-10.711-3.964c-3.292-1.892-6.377-4.107-9.092-6.681c-2.692-2.583-5.153-5.388-7.249-8.405
					c-2.184-2.968-3.981-6.152-5.702-9.355c-3.328-6.466-5.816-13.263-7.782-20.158c-1.96-6.901-3.35-13.924-4.345-20.981
					c-1.979-14.123-2.268-28.38-1.529-42.529c0.417-7.075,1.108-14.127,2.036-21.144
					C203.183,312.933,204.417,305.965,205.853,299.041z"/>
			</g>
			
				<radialGradient id="SVGID_9_" cx="534.3479" cy="269.5044" r="207.7242" gradientTransform="matrix(0.9396 0.3423 -0.3423 0.9396 -141.4505 -1.5367)" gradientUnits="userSpaceOnUse">
				<stop  offset="0.0855" style="stop-color:#333232"/>
				<stop  offset="1" style="stop-color:#FFFFFF"/>
			</radialGradient>
			<path opacity="0.25" fill="url(#SVGID_9_)" d="M223.936,323.496c10.495-70.594,45.805-123.837,78.867-118.921
				c13.754,2.045,24.94,13.857,32.573,32.012c-7.004-28.315-20.579-47.572-38.515-50.238
				c-33.061-4.915-68.372,48.327-78.867,118.921c-6.129,41.225-2.428,79.227,8.286,104.71
				C220.373,386.103,219.134,355.792,223.936,323.496z"/>
		</g>
		<circle opacity="0.15" fill="#FFFFFF" cx="251.723" cy="360.238" r="21.049"/>
	</g>
	<g>
		<path d="M212.936,624.364l-0.157-3.388l-0.057-1.706l0.091-1.701c0.066-1.136,0.112-2.281,0.198-3.424l0.486-3.404
			c0.086-0.569,0.155-1.144,0.276-1.705l0.407-1.676c0.28-1.116,0.528-2.249,0.841-3.362l1.094-3.293
			c0.19-0.547,0.353-1.109,0.567-1.647l0.674-1.602l1.366-3.213l1.606-3.096l0.813-1.551l0.907-1.49l1.835-2.98
			c0.627-0.984,1.33-1.91,2.003-2.863c0.697-0.932,1.328-1.93,2.084-2.812l2.211-2.71c0.373-0.448,0.732-0.913,1.118-1.349
			l1.179-1.287c6.274-6.905,13.427-12.968,21.061-18.268c7.632-5.314,15.753-9.872,24.127-13.831
			c8.383-3.946,17.024-7.308,25.831-10.115c2.208-0.672,4.401-1.423,6.627-2.03l6.683-1.829l6.734-1.612
			c2.247-0.533,4.513-0.956,6.771-1.439c9.049-1.807,18.189-3.114,27.362-4.031c9.18-0.84,18.391-1.245,27.601-1.322
			c9.211,0.065,18.42,0.488,27.602,1.31c9.173,0.915,18.312,2.232,27.364,4.026c9.049,1.802,18.025,4.044,26.818,6.908
			c2.212,0.661,4.388,1.456,6.572,2.213l3.271,1.15l3.236,1.26l3.227,1.274c1.074,0.429,2.129,0.914,3.193,1.369
			c2.122,0.929,4.256,1.817,6.336,2.849c4.203,1.948,8.309,4.118,12.341,6.411c4.028,2.303,7.984,4.747,11.79,7.42
			c7.634,5.302,14.787,11.366,21.062,18.273l1.179,1.288c0.386,0.436,0.745,0.901,1.118,1.35l2.211,2.711
			c0.756,0.882,1.388,1.88,2.084,2.813c0.673,0.954,1.378,1.878,2.004,2.863l1.834,2.981l0.906,1.49l0.812,1.551l1.607,3.096
			l1.365,3.214l0.673,1.602c0.214,0.538,0.376,1.1,0.566,1.647l1.093,3.294c0.312,1.113,0.56,2.247,0.839,3.363l0.406,1.676
			c0.12,0.562,0.191,1.137,0.277,1.705l0.484,3.405c0.085,1.143,0.131,2.289,0.196,3.424l0.09,1.701l-0.058,1.706l-0.159,3.388
			l-0.461-3.351l-0.218-1.662l-0.36-1.641c-0.245-1.091-0.467-2.179-0.727-3.256l-0.998-3.176c-0.176-0.524-0.305-1.059-0.498-1.576
			l-0.612-1.539c-0.415-1.021-0.793-2.051-1.232-3.055l-1.462-2.949c-0.25-0.487-0.469-0.985-0.741-1.46l-0.843-1.41l-1.682-2.803
			l-1.863-2.688l-0.923-1.341l-1.014-1.282l-2.03-2.547c-0.69-0.837-1.456-1.618-2.169-2.434c-0.743-0.794-1.41-1.642-2.209-2.387
			l-2.323-2.283c-0.39-0.377-0.763-0.767-1.166-1.132l-1.228-1.074c-12.984-11.572-28.502-20.037-44.689-26.489
			c-16.246-6.394-33.231-10.974-50.518-13.837c-17.273-2.946-34.823-4.296-52.375-4.329c-17.552,0.023-35.103,1.374-52.378,4.313
			c-17.285,2.87-34.278,7.431-50.522,13.835c-16.189,6.451-31.711,14.918-44.695,26.494l-1.228,1.075
			c-0.402,0.365-0.775,0.755-1.166,1.132l-2.323,2.284c-0.799,0.745-1.466,1.594-2.209,2.388c-0.712,0.816-1.481,1.596-2.169,2.434
			l-2.03,2.549l-1.014,1.282l-0.922,1.342l-1.863,2.689l-1.681,2.805l-0.843,1.411c-0.271,0.475-0.491,0.974-0.74,1.461l-1.46,2.95
			c-0.439,1.004-0.817,2.034-1.231,3.056l-0.611,1.54c-0.191,0.518-0.322,1.052-0.498,1.576l-0.996,3.177
			c-0.259,1.077-0.481,2.166-0.726,3.257l-0.359,1.642l-0.217,1.662L212.936,624.364z"/>
	</g>
	<radialGradient id="SVGID_10_" cx="152.7727" cy="483.2931" r="62.3898" gradientUnits="userSpaceOnUse">
		<stop  offset="0" style="stop-color:#C67AB3"/>
		<stop  offset="0.9832" style="stop-color:#C67AB3;stop-opacity:0"/>
	</radialGradient>
	<circle fill="url(#SVGID_10_)" cx="152.773" cy="483.293" r="62.39"/>
	<radialGradient id="SVGID_11_" cx="606.2195" cy="483.2931" r="62.3898" gradientUnits="userSpaceOnUse">
		<stop  offset="0" style="stop-color:#C67AB3"/>
		<stop  offset="0.9832" style="stop-color:#C67AB3;stop-opacity:0"/>
	</radialGradient>
	<circle fill="url(#SVGID_11_)" cx="606.22" cy="483.293" r="62.39"/>
</g>
<g id="Notes">
</g>
<g id="EventCalendar">
</g>
<g id="Colors">
</g>
</svg>
